<?xml version="1.0" standalone="no"?>
<!DOCTYPE svg PUBLIC "-//W3C//DTD SVG 1.1//EN" "http://www.w3.org/Graphics/SVG/1.1/DTD/svg11.dtd" >
<svg xmlns="http://www.w3.org/2000/svg">
<metadata>Generated by IcoMoon</metadata>
<defs>
<font id="icomoon" horiz-adv-x="1024">
<font-face units-per-em="1024" ascent="960" descent="-64" />
<missing-glyph horiz-adv-x="1024" />
<glyph unicode="&#x20;" horiz-adv-x="512" d="" />
<glyph unicode="&#xe900;" glyph-name="area" d="M940.942 920.747h-201.387l-56.889-57.458h201.387l56.889 57.458zM438.044 920.747l-56.889-57.458h221.298l56.889 57.458h-221.298zM357.262 920.747h-200.818l-56.889-57.458h200.818l56.889 57.458zM938.667 53.191l56.889 56.889v221.298l-56.889-56.889v-221.298zM938.667 837.689v-200.818l56.889 56.889v200.818l-56.889-56.889zM938.667 355.271l56.889 56.889v200.818l-56.889-56.889v-200.818zM85.333 849.636l-56.889-56.889v-201.387l56.889 56.889v201.387zM995.556-46.933v76.8l-76.231-76.8h76.231zM54.044-46.933h201.387l56.889 56.889h-201.387l-56.889-56.889zM335.644-46.933h201.387l56.889 56.889h-201.387l-56.889-56.889zM617.244-46.933h221.298l56.889 56.889h-221.298l-56.889-56.889zM28.444 920.747v-47.787l47.218 47.787h-47.218zM85.333 568.036l-56.889-56.889v-221.298l56.889 56.889v221.298zM85.333 265.956l-56.889-56.889v-200.818l56.889 56.889v200.818zM255.431 648.249h113.778v-113.778h-113.778v113.778zM407.893 777.387h113.778v-113.778h-113.778v113.778zM742.969 205.084h113.778v-113.778h-113.778v113.778zM774.827 384.284h113.778v-113.778h-113.778v113.778z" />
<glyph unicode="&#xe901;" glyph-name="back" d="M512 960c-282.77 0-512-229.23-512-512s229.23-512 512-512c282.77 0 512 229.23 512 512s-229.23 512-512 512zM512 0c-247.424 0-448 200.576-448 448s200.576 448 448 448c247.424 0 448-200.576 448-448s-200.576-448-448-448zM631.68 757.76l-309.76-309.76 309.76-309.76 44.8 45.44-264.32 264.32 264.32 264.32-44.8 45.44z" />
<glyph unicode="&#xe902;" glyph-name="Settings_Change-weight" d="M828.302 903.111l-145.636-139.947h113.778v-350.436h56.889v350.436h113.778l-138.809 139.947zM227.556 483.271h-56.889v-350.436h-113.778l142.222-139.947 142.222 139.947h-113.778v350.436zM369.778 623.218h113.778c16.159 2.006 28.542 15.654 28.542 32.193 0 0.883-0.035 1.758-0.105 2.623 0.1 0.807 0.153 1.876 0.153 2.958 0 16.557-12.409 30.215-28.433 32.183l-113.935 0.016c-16.182-1.984-28.59-15.642-28.59-32.199 0-1.082 0.053-2.151 0.156-3.206-0.073-0.618-0.108-1.492-0.108-2.376 0-16.54 12.383-30.187 28.383-32.177zM369.778 412.729h227.556c16.182 1.984 28.59 15.642 28.59 32.199 0 1.082-0.053 2.151-0.156 3.206 0.103 0.787 0.156 1.857 0.156 2.939 0 16.557-12.409 30.215-28.433 32.183l-227.712 0.016c-16.182-1.984-28.59-15.642-28.59-32.199 0-1.082 0.053-2.151 0.156-3.206-0.103-0.787-0.156-1.857-0.156-2.939 0-16.557 12.409-30.215 28.433-32.183zM711.111 272.782h-341.333c-16.176-3.686-28.066-17.948-28.066-34.987s11.89-31.3 27.825-34.94l341.574-0.046c16.176 3.686 28.066 17.948 28.066 34.987s-11.89 31.3-27.825 34.94z" />
<glyph unicode="&#xe903;" glyph-name="disposition-history" d="M480.64 623.36h65.92v-248.96h-65.92v248.96zM480.64 329.6h65.92v-60.16h-65.92v60.16zM516.48 765.44c-173.55 0-314.24-140.69-314.24-314.24s140.69-314.24 314.24-314.24c173.55 0 314.24 140.69 314.24 314.24-0.363 173.403-140.836 313.876-314.205 314.24zM516.48 175.36c-151.989 0-275.2 123.211-275.2 275.2s123.211 275.2 275.2 275.2c151.989 0 275.2-123.211 275.2-275.2-0.725-151.567-123.581-274.199-275.165-274.56zM99.84 452.48c-0.001 0.262-0.001 0.571-0.001 0.881 0 121.202 52.479 230.147 135.953 305.353l-63.632 73.286c-104.195-94.098-169.394-229.675-169.394-380.48s65.199-286.382 168.946-380.082l64.448 71.922c-83.851 75.533-136.334 184.483-136.334 305.691 0 1.206 0.005 2.41 0.016 3.613zM853.12 832l-64-73.6 10.88-10.24c78.294-74.334 127.003-179.178 127.003-295.399 0-52.578-9.969-102.828-28.12-148.963-20.924-58.479-55.793-110.448-100.551-151.888-4.731-4.71-9.211-7.91-0.251-14.95l60.16-64c102.062 93.902 165.788 228.11 165.788 377.202 0 151.52-65.818 287.668-170.424 381.412z" />
<glyph unicode="&#xe904;" glyph-name="disposition" d="M529.067 549.831c0 6.912-5.603 12.516-12.516 12.516h-25.6c-6.912 0-12.516-5.603-12.516-12.516v-140.516l10.24-181.476c0-6.912 5.603-12.516 12.516-12.516h5.12c6.912 0 12.516 5.603 12.516 12.516l10.24 181.476v140.516zM488.107 164.124h30.72v-30.72h-30.72v30.72z" />
<glyph unicode="&#xe905;" glyph-name="disposition_high" d="M232.727 587.636l279.273 372.364 279.273-372.364h-186.182v-651.636h-186.182v651.636h-186.182z" />
<glyph unicode="&#xe906;" glyph-name="disposition_low" d="M418.909 308.364v651.636h186.182v-651.636h186.182l-279.273-372.364-279.273 372.364h186.182z" />
<glyph unicode="&#xe907;" glyph-name="enterprise" d="M950.613 264.818v484.693h-49.493c0.866 4.533 1.361 9.746 1.361 15.076s-0.495 10.543-1.442 15.597c-6.415 26.373-28.892 46.544-56.519 49.515-9.391 0.025-11.666 0.025-13.373 12.541-3.413 21.618 35.84 23.893 36.409 23.893v0l34.702 47.787c-80.782 18.773-133.12-26.738-127.431-77.938 1.804-29.927 23.473-54.31 51.913-60.228 9.752-0.599 17.501-6.811 20.291-15.277 0.519-1.776 0.792-3.637 0.792-5.561s-0.273-3.785-0.782-5.545l-71.645 0.141v-484.693h-39.822v329.387l-181.476-180.338v180.338l-179.769-180.338v180.338l-345.884-346.453v-269.084h967.111v284.444h-44.942zM938.667 37.262h-853.333v187.164l231.538 232.676v-179.769l180.338 179.769v-179.769l179.2 180.338v-249.173h153.6v484.124h61.44v-484.693h47.218v-170.667z" />
<glyph unicode="&#xe908;" glyph-name="error-message" horiz-adv-x="1125" d="M1125.275-64h-1125.275l562.637 1024zM107.464-0.422h910.347l-455.174 828.202zM530.004 490.76h65.829v-247.56h-65.829v247.56zM530.004 198.752h65.829v-59.64h-65.829v59.64z" />
<glyph unicode="&#xe909;" glyph-name="less" d="M489.658 680.727l-489.658-458.938 47.476-51.2 442.182 414.255 441.251-413.324 47.476 51.2-488.727 458.007z" />
<glyph unicode="&#xe90a;" glyph-name="more" d="M489.658 170.589l-489.658 458.938 47.476 51.2 442.182-414.255 441.251 412.393 47.476-50.269-488.727-458.007z" />
<glyph unicode="&#xe90b;" glyph-name="notification" d="M698.24 122.24h-618.88l106.88 106.88v264.96c0 179.912 145.848 325.76 325.76 325.76s325.76-145.848 325.76-325.76v-265.6l106.88-106.88h-246.4zM512-17.28c-58.912 1.516-108.615 39.324-127.692 91.829l262.092 0.971c-19.385-53.476-69.088-91.284-127.82-92.796l-0.18-0.004zM1016.96 115.84l-133.12 132.48v245.76c-0.723 188.918-141.494 344.738-323.849 369.072l-1.911 50.128c0.204 1.639 0.32 3.535 0.32 5.459 0 25.803-20.917 46.72-46.72 46.72s-46.72-20.917-46.72-46.72c0-1.924 0.116-3.82 0.342-5.683l-0.022-49.696c-184.267-24.542-325.038-180.362-325.76-369.205v-246.475l-133.12-132.48c-4.388-4.202-7.116-10.108-7.116-16.651 0-12.725 10.315-23.040 23.040-23.040 0.252 0 0.502 0.004 0.752 0.012l307.804-0.001c21.594-80.325 93.765-138.484 179.52-138.484s157.926 58.159 179.222 137.185l309.418 1.299c0.213-0.007 0.464-0.011 0.716-0.011 12.725 0 23.040 10.315 23.040 23.040 0 6.543-2.727 12.449-7.107 16.643l-0.008 0.008z" />
<glyph unicode="&#xe90c;" glyph-name="pin" horiz-adv-x="1026" d="M323.807 332.904l-71.815-73.097-143.629-143.629-73.097-71.815-35.266-108.363 108.363 34.625 71.815 73.738 143.629 143.629 73.738 71.815-37.19 36.549-36.549 36.549zM828.433 760.586l-30.778 30.778-169.277 166.071-14.106-44.884c-10.521-31.443-17.019-67.699-17.945-105.338l-226.353-226.805c-14.849 2.031-32.009 3.19-49.44 3.19-36.722 0-72.243-5.145-105.88-14.754l-44.094-13.443 452.689-452.689 14.106 46.808c8.867 30.418 13.967 65.36 13.967 101.494 0 16.89-1.114 33.519-3.274 49.819l226.551 226.356c38.981 1.431 75.818 8.596 110.348 20.677l40.335 13.306zM862.417 584.255h-12.824l-256.481-256.481 3.847-14.106c0.362-5.656 0.568-12.265 0.568-18.921 0-24.43-2.777-48.212-8.033-71.047l-296.465 298.359c20.664 4.801 44.392 7.554 68.763 7.554 6.262 0 12.481-0.182 18.653-0.54l13.254 0.040 256.481 256.481v12.824c2.54 19.208 6.355 36.339 11.498 52.886l103.919-106.747 150.041-150.041c-15.323-4.401-33.427-7.8-52.016-9.528z" />
<glyph unicode="&#xe90d;" glyph-name="pinned" horiz-adv-x="1026" d="M323.807 332.904l-71.815-73.097-143.629-143.629-73.097-71.815-35.266-108.363 108.363 34.625 71.815 73.738 143.629 143.629 73.738 71.815-37.19 36.549-36.549 36.549zM828.433 760.586l-199.414 199.414-14.106-44.884c-10.521-31.443-17.019-67.699-17.945-105.338l-226.353-226.805c-14.849 2.031-32.009 3.19-49.44 3.19-36.722 0-72.243-5.145-105.88-14.754l-44.094-13.443 452.689-452.689 14.106 46.808c8.867 30.418 13.967 65.36 13.967 101.494 0 16.89-1.114 33.519-3.274 49.819l226.551 226.356c38.981 1.431 75.818 8.596 110.348 20.677l40.335 13.306z" />
<glyph unicode="&#xe90e;" glyph-name="plant" d="M880.071 49.778l-34.133 515.982h-213.902l-34.133-515.982h-113.778l-56.889 853.333h-226.418l-56.889-853.333h-56.889v-56.889h853.333v56.889h-56.889zM200.818 49.778l53.476 796.444h117.191l53.476-796.444h-224.142zM655.929 49.778l26.738 457.956h106.951l33.564-457.956h-170.667z" />
<glyph unicode="&#xe90f;" glyph-name="print" d="M848 672.64v224h-664.96v-224h-183.68v-517.76h183.68v-186.24h664.96v185.6h176v518.4h-176zM260.48 830.080h504.32v-157.44h-504.32v154.24zM772.48 28.16h-512v132.48h512v-131.84zM941.44 240h-855.68v347.52h852.48v-347.52zM825.6 417.28c0-29.691-24.069-53.76-53.76-53.76s-53.76 24.069-53.76 53.76c0 29.691 24.069 53.76 53.76 53.76s53.76-24.069 53.76-53.76z" />
<glyph unicode="&#xe910;" glyph-name="properties" d="M453.912 581.634h107.288v-405.664h-107.288v405.664zM453.912 727.648h107.288v-97.766h-107.288v97.766zM512.317 960c-282.594 0-511.683-229.088-511.683-511.683s229.088-511.683 511.683-511.683c282.594 0 511.683 229.088 511.683 511.683-0.361 282.45-229.234 511.322-511.648 511.683zM512.317-0.516c-247.533 0-448.198 200.665-448.198 448.198s200.665 448.198 448.198 448.198c247.533 0 448.198-200.665 448.198-448.198-1.081-246.842-201.255-446.571-448.164-446.929z" />
<glyph unicode="&#xe911;" glyph-name="realtime-trend" d="M547.84 956.8c-10.917 0.829-23.644 1.301-36.482 1.301-282.77 0-512-229.23-512-512 0-0.457 0.001-0.915 0.002-1.372-0.013-1.212-0.020-2.727-0.020-4.244 0-21.044 1.403-41.76 4.12-62.060 0.299-4.585 6.084-10.021 13.139-10.021 3.78 0 7.196 1.561 9.638 4.072l49.923 49.923c2.394 2.696 3.856 6.266 3.856 10.178 0 0.247-0.006 0.493-0.017 0.737l0.001 11.485c-0.007 0.938-0.011 2.047-0.011 3.157 0 239.647 194.273 433.92 433.92 433.92s433.92-194.273 433.92-433.92c0-239.647-194.273-433.92-433.92-433.92-166.709 0-311.46 94.012-384.13 231.913l163.341 166.851 177.92-177.92c2.337-2.456 5.63-3.984 9.28-3.984s6.943 1.528 9.275 3.979l256.005 256.005v-76.8c-0.011-0.196-0.017-0.426-0.017-0.657 0-7.069 5.731-12.8 12.8-12.8 0.231 0 0.461 0.006 0.689 0.018l52.448-0.001c0.196-0.011 0.426-0.017 0.657-0.017 7.069 0 12.8 5.731 12.8 12.8 0 0.231-0.006 0.461-0.018 0.689l0.001 200.928c0.011 0.196 0.017 0.426 0.017 0.657 0 7.069-5.731 12.8-12.8 12.8-0.231 0-0.461-0.006-0.689-0.018l-200.928 0.001c-0.196 0.011-0.426 0.017-0.657 0.017-7.069 0-12.8-5.731-12.8-12.8 0-0.231 0.006-0.461 0.018-0.689l-0.001-53.728c-0.011-0.196-0.017-0.426-0.017-0.657 0-7.069 5.731-12.8 12.8-12.8 0.231 0 0.461 0.006 0.689 0.018l76.768-0.001-204.8-204.8-177.92 177.92c-2.337 2.456-5.63 3.984-9.28 3.984s-6.943-1.528-9.275-3.979l-245.125-245.125c-1.548-2.019-2.48-4.581-2.48-7.36s0.933-5.341 2.502-7.389c78.515-188.102 260.987-317.913 473.778-317.913 282.77 0 512 229.23 512 512 0 10.308-0.305 20.545-0.905 30.703-19.776 253.047-222.942 454.224-476.486 470.84z" />
<glyph unicode="&#xe912;" glyph-name="rule-break-indication" d="M1006.364-12.8h-1006.364l502.898 915.911zM96.142 44.089h814.080l-407.324 739.556zM473.884 483.271h58.596v-221.298h-58.596v221.298zM473.884 222.151h58.596v-53.476h-58.596v53.476z" />
<glyph unicode="&#xe913;" glyph-name="rule-break" d="M403.759 589.252l-15.236 63.484-283.774-304.089 126.968-118.081 271.077 290.758-31.742 76.816zM229.813 271.831l-86.338 80.625 26.663 28.568 63.484-56.501 18.41 19.68-63.484 56.501 18.41 19.68 32.377-29.838 18.41 19.68-32.377 29.838 18.41 19.68 63.484-56.501 18.41 19.68-63.484 56.501 18.41 20.315 32.377-29.838 18.41 20.315-32.377 29.838 18.41 19.68 63.484-57.136 18.41 19.68-63.484 57.136 35.551 38.091 9.523-41.9 70.467 12.697 16.506-39.995zM672.932 670.512l-93.957-20.315 3.809-44.439-63.484-15.236 260.92-364.399 140.3 100.94zM563.74 572.112l48.248 11.427-3.809 43.804 52.692 11.427 20.315-27.933-35.551-25.394 15.871-22.219 35.551 25.394 15.871-22.219-67.293-48.248 15.871-22.219 67.293 48.248 15.871-22.219-35.551-25.394 15.871-22.219 35.551 25.394 15.871-22.219-67.293-48.248 15.871-22.219 67.293 48.248 15.871-22.219-35.551-25.394 15.871-22.219 35.551 25.394 15.871-22.219-67.293-48.248 15.871-22.219 67.293 48.248 24.759-34.916-95.861-68.563zM511.683 960c-282.594 0-511.683-229.088-511.683-511.683s229.088-511.683 511.683-511.683c282.594 0 511.683 229.088 511.683 511.683-0.361 282.45-229.234 511.322-511.648 511.683zM511.683-0.516c-247.533 0-448.198 200.665-448.198 448.198s200.665 448.198 448.198 448.198c247.533 0 448.198-200.665 448.198-448.198-1.081-246.842-201.255-446.571-448.164-446.929z" />
<glyph unicode="&#xe914;" glyph-name="saved-filter" d="M751.736 495.586c-149.702 0-271.059-121.357-271.059-271.059s121.357-271.059 271.059-271.059c149.702 0 271.059 121.357 271.059 271.059s-121.357 271.059-271.059 271.059zM751.736 9.487c-118.763 0-215.040 96.277-215.040 215.040s96.277 215.040 215.040 215.040c118.763 0 215.040-96.277 215.040-215.040-0.343-118.504-96.488-214.438-215.039-214.438 0 0-0.001 0-0.001 0zM814.984 869.647l-272.866-299.369v-61.44l60.235 0.602v35.539l361.412 384.904h-963.765l361.412-384.904v-469.233l60.235 78.306v416.226l-272.866 299.369h666.202zM866.184 326.325l-169.864-168.056-59.031 58.428-39.153-39.153 59.031-58.428 39.153-38.551 209.619 207.209-39.755 38.551z" />
<glyph unicode="&#xe915;" glyph-name="pause" d="M512 958.080c-282.77 0-512-229.23-512-512s229.23-512 512-512c282.77 0 512 229.23 512 512s-229.23 512-512 512zM512-1.92c-247.424 0-448 200.576-448 448s200.576 448 448 448c247.424 0 448-200.576 448-448s-200.576-448-448-448zM397.44 689.92h64v-512h-64v512zM589.44 689.92h64v-512h-64v512z" />
<glyph unicode="&#xe916;" glyph-name="search" horiz-adv-x="1023" d="M703.56 304.41c58.703 68.722 94.424 158.614 94.424 256.85 0 219.010-177.542 396.552-396.552 396.552s-396.552-177.542-396.552-396.552c0-219.010 177.542-396.552 396.552-396.552 96.413 0 184.79 34.407 253.522 91.612l319.157-320.32 48.61 49.249zM400.39 232.775c-181.919 0-329.394 147.475-329.394 329.394s147.475 329.394 329.394 329.394c181.919 0 329.394-147.475 329.394-329.394 0-0.002 0-0.004 0-0.006 0-181.919-147.475-329.394-329.394-329.394-0.675 0-1.349 0.002-2.022 0.006z" />
<glyph unicode="&#xe917;" glyph-name="tuning-history" d="M455.68 444.8v-411.52c0-22.622 18.338-40.96 40.96-40.96s40.96 18.338 40.96 40.96v412.16c-12.66-3.497-27.198-5.507-42.204-5.507-14.103 0-27.792 1.775-40.855 5.114zM538.24 773.76v81.28c0 22.622-18.338 40.96-40.96 40.96s-40.96-18.338-40.96-40.96v-80c11.554 2.899 24.818 4.562 38.471 4.562 15.46 0 30.421-2.133 44.607-6.121zM921.6 430.080v424.96c0 22.622-18.338 40.96-40.96 40.96s-40.96-18.338-40.96-40.96v-427.52c13.8 4.078 29.656 6.424 46.059 6.424 12.706 0 25.083-1.408 36.984-4.076zM839.040 101.12v-67.84c0-22.622 18.338-40.96 40.96-40.96s40.96 18.338 40.96 40.96v64c-10.053-2.167-21.601-3.408-33.44-3.408-17.298 0-33.978 2.65-49.654 7.565zM181.76 561.28v293.76c0 22.622-18.338 40.96-40.96 40.96s-40.96-18.338-40.96-40.96v-291.84c11.171 2.674 23.997 4.207 37.181 4.207 15.926 0 31.329-2.237 45.913-6.415zM99.84 231.68v-199.040c0-22.622 18.338-40.96 40.96-40.96s40.96 18.338 40.96 40.96v200.32c-13.039-3.671-28.013-5.781-43.48-5.781-13.639 0-26.894 1.641-39.579 4.736zM495.36 747.52c-76.348 0-138.24-61.892-138.24-138.24s61.892-138.24 138.24-138.24c76.348 0 138.24 61.892 138.24 138.24s-61.892 138.24-138.24 138.24zM495.36 549.12c-33.225 0-60.16 26.935-60.16 60.16s26.935 60.16 60.16 60.16c33.225 0 60.16-26.935 60.16-60.16-0.362-32.949-27.156-59.52-60.157-59.52-0.001 0-0.002 0-0.004 0zM885.76 402.56c-76.348 0-138.24-61.892-138.24-138.24s61.892-138.24 138.24-138.24c76.348 0 138.24 61.892 138.24 138.24s-61.892 138.24-138.24 138.24zM885.76 204.16c-33.225 0-60.16 26.935-60.16 60.16s26.935 60.16 60.16 60.16c33.225 0 60.16-26.935 60.16-60.16s-26.935-60.16-60.16-60.16zM140.8 535.68c-76.348 0-138.24-61.892-138.24-138.24s61.892-138.24 138.24-138.24c76.348 0 138.24 61.892 138.24 138.24s-61.892 138.24-138.24 138.24zM140.8 337.28c-33.225 0-60.16 26.935-60.16 60.16s26.935 60.16 60.16 60.16c33.225 0 60.16-26.935 60.16-60.16s-26.935-60.16-60.16-60.16z" />
<glyph unicode="&#xe918;" glyph-name="unit" d="M632.604 885.476v-431.218l-291.271 199.68-284.444-240.64v-408.462h906.809v880.64h-331.093zM906.809 61.724h-789.618v325.404l227.556 195.129 341.333-236.089v482.418h217.316v-766.862zM430.080 359.822c0-47.128-38.205-85.333-85.333-85.333s-85.333 38.205-85.333 85.333c0 47.128 38.205 85.333 85.333 85.333s85.333-38.205 85.333-85.333z" />
<glyph unicode="&#xe919;" glyph-name="play" d="M512 958.080c-282.77 0-512-229.23-512-512s229.23-512 512-512c282.77 0 512 229.23 512 512s-229.23 512-512 512zM512-1.92c-247.424 0-448 200.576-448 448s200.576 448 448 448c247.424 0 448-200.576 448-448s-200.576-448-448-448zM374.4 224l387.84 224-387.84 224v-448z" />
<glyph unicode="&#xe91a;" glyph-name="refresh" d="M217.6 672h-92.8c79.736 131.101 221.823 217.327 384.050 217.327 245.077 0 444.192-196.791 447.946-440.974l64.004-0.353c-0.205 282.615-229.357 511.64-512 511.64-174.255 0-328.179-87.052-420.654-220.040l-1.106 62.32-64 64v-256h256zM807.040 224h91.52c-79.736-131.101-221.823-217.327-384.050-217.327-245.077 0-444.192 196.791-447.946 440.974l-64.004 0.353c0.427-282.447 229.493-511.25 511.999-511.25 175.452 0 330.292 88.252 422.551 222.786l1.13-62.256 64-64v256h-256z" />
<glyph unicode="&#xe91b;" glyph-name="saved-view" d="M766.862 492.942c-141.385 0-256-114.615-256-256s114.615-256 256-256c141.385 0 256 114.615 256 256s-114.615 256-256 256zM766.862 33.849c-112.165 0-203.093 90.928-203.093 203.093s90.928 203.093 203.093 203.093c112.165 0 203.093-90.928 203.093-203.093-0.324-111.92-91.127-202.524-203.093-202.524 0 0 0 0-0.001 0zM54.044 106.667l-0.569 739.556h629.191v-274.773l56.889 22.187v309.476h-739.556v-853.333h507.449l-36.409 56.889h-416.996zM874.951 333.084l-42.667-42.098-117.76-116.622-55.751 55.182-36.978-36.978 14.791-14.791 40.96-40.391 29.582-29.582 7.396-6.827 197.973 195.698-37.547 36.409z" />
<glyph unicode="&#xe91c;" glyph-name="Settings_Site" d="M597.333 622.080c0-47.128-38.205-85.333-85.333-85.333s-85.333 38.205-85.333 85.333c0 47.128 38.205 85.333 85.333 85.333s85.333-38.205 85.333-85.333zM490.951 181.76l21.049-23.893 21.049 23.893c7.396 7.964 175.218 199.68 227.556 344.747 9.634 26.59 15.253 57.28 15.36 89.267 0 144.889-117.417 262.306-262.258 262.306s-262.258-117.417-262.258-262.258c-0.018-1.090-0.028-2.376-0.028-3.664 0-30.563 5.644-59.807 15.947-86.748 60.873-130.46 135.84-244.202 224.921-345.197zM512 821.191c113.422 0 205.369-91.947 205.369-205.369-0.215-25.352-4.784-49.571-12.993-72.036-51.914-113.502-116.483-212.496-193.55-300.243-74.17 88.742-139.018 188.364-189.475 296.071-10.576 27.022-14.765 49.083-14.765 72.123 0 1.436 0.016 2.869 0.049 4.297-0.004 113.21 91.943 205.156 205.365 205.156zM663.893 226.702l-46.080-49.493c124.018-15.36 163.271-48.924 163.271-56.889s-84.196-65.422-269.084-65.422-268.516 51.769-268.516 63.716 40.96 44.942 161.564 57.458v0l-46.080 48.924c-71.111-12.516-170.667-42.667-170.667-108.089 0-83.058 170.667-120.604 325.404-120.604s325.404 37.547 325.404 120.604c-1.707 67.698-103.538 97.28-175.218 109.796z" />
<glyph unicode="&#xe91d;" glyph-name="Settings_Add-unit-role" d="M967.111 476.444h-426.667v426.667h-56.889v-426.667h-426.667v-56.889h426.667v-426.667h56.889v426.667h426.667v56.889z" />
<glyph unicode="&#xe91e;" glyph-name="Settings_Back-from-settings" d="M469.333 730.738l-341.333-341.902 341.333-341.333 37.547 43.236-270.222 269.653h659.342v56.889h-659.342l272.498 272.498-39.822 40.96z" />
<glyph unicode="&#xe91f;" glyph-name="Settings_Benchmark-settings" d="M128.569 669.867h62.578v56.889h-62.578v162.702h-56.889v-881.778h882.347v56.889h-825.458v605.298zM384.569 296.676l171.804-158.151 360.676 360.676-40.391 40.391-321.991-321.991-170.098 156.444-190.009-175.218 38.684-41.529 151.324 139.378zM589.369 726.756h113.778v-56.889h-113.778v56.889zM760.036 726.756h113.778v-56.889h-113.778v56.889zM248.036 726.756h113.778v-56.889h-113.778v56.889zM418.702 726.756h113.778v-56.889h-113.778v56.889zM930.702 726.756h56.889v-56.889h-56.889v56.889z" />
<glyph unicode="&#xe920;" glyph-name="Settings_Collapse-all" d="M476.729 802.987l-361.813-362.382 40.391-39.822 361.813 361.813 361.813-361.813 40.391 39.822-361.813 362.382-40.391 39.822-40.391-39.822zM104.676 188.587l40.391-40.391 361.813 362.382 361.813-362.382 40.391 40.391-402.204 402.204-402.204-402.204z" />
<glyph unicode="&#xe921;" glyph-name="Settings_Column-settings" d="M104.107 21.333h227.556v853.333h-227.556v-853.333zM160.996 817.778h113.778v-739.556h-113.778v739.556zM416.996 846.222h170.667v-796.444h-170.667v796.444zM672.427 874.667v-853.333h227.556v853.333h-227.556zM843.093 78.222h-113.778v739.556h113.778v-739.556z" />
<glyph unicode="&#xe922;" glyph-name="Settings_Disposition-and-email-setting" d="M481.849 730.169h68.267v-212.764h-68.267v212.764zM481.849 461.084h68.267v-68.267h-68.267v68.267zM786.204 557.796v331.093h-540.444v-327.111l-162.133-124.587v-440.889h856.747v440.889zM786.204 485.547l67.129-52.907-67.129-23.324v76.231zM302.649 533.333v298.667h426.667v-440.889l-217.316-76.231-209.351 72.249v146.204zM245.76 489.529v-82.489l-75.093 25.6zM140.516 383.147l105.244-36.409 56.889-19.911 27.876-9.671-190.009-216.747v284.444zM174.649 53.191l213.902 244.053 66.56-23.324 56.889-19.342 56.889 19.342 62.009 21.618 212.196-242.347h-668.444zM883.484 91.876l-195.698 223.573 41.529 14.222 56.889 19.911 97.28 33.564v-291.271z" />
<glyph unicode="&#xe923;" glyph-name="Settings_Export-CSV" d="M987.022 413.867l-383.431 329.956v-187.164c-95.004-11.378-395.378-79.076-395.378-495.502l54.044-11.378c113.778 238.933 284.444 241.778 341.333 234.951v-192.853zM573.44 342.756c-124.164-2.613-232.931-66.221-297.84-161.978 13.479 112.465 77.716 208.794 168.886 266.325 54.565 33.291 117.999 53.945 185.934 57.739l29.491 0.047v113.778l238.933-205.938-238.933-200.818v113.778l-20.48 8.533c-19.663 5.419-42.242 8.534-65.547 8.534-0.156 0-0.312 0-0.468 0zM670.72 17.351h-545.564v790.756h545.564v-85.333h56.889v142.222h-659.342v-904.533h659.342v139.947h-56.889v-83.058z" />
<glyph unicode="&#xe924;" glyph-name="Settings_Filter-loop-type" d="M56.889 842.809l326.542-366.364v-483.556l227.556 215.040v268.516l356.124 366.364h-910.222zM554.098 501.476v-266.24l-113.778-106.382v372.053l-242.916 284.444h629.191z" />
<glyph unicode="&#xe925;" glyph-name="Settings_Hide-unhide-assets" d="M480.142 448c0 0.059 0 0.129 0 0.199 0 14.025 1.45 27.711 4.208 40.917l-61.097-1.294v-51.769h56.889c0.569 3.982 0 7.964 0 11.947zM547.84 596.48h-124.587v-51.769h83.058c11.296 20.032 25.123 37.122 41.334 51.598zM493.227 379.164h-69.973v-52.338h98.987c-11.716 15.023-21.511 32.327-28.563 50.979zM423.253 903.111h56.889v-31.289h-56.889v31.289zM931.271 487.822h-56.889c2.532-11.912 3.982-25.598 3.982-39.623 0-0.070 0-0.14 0-0.21 0-3.971 0-7.954 0-11.936h56.889c0 3.982 0 7.964 0 11.947-0.304 14.288-1.74 28.023-4.224 41.389zM679.253 248.889c-20.589 0.707-40.046 4.61-58.198 11.226 52.991 46.217 85.334 113.434 85.334 188.204 0 84.287-41.1 158.975-104.351 205.116l230.816 0.502c-41.555 31.153-93.949 49.932-150.725 50.062-1.077 0.016-2.312 0.025-3.55 0.025-42.194 0-81.927-10.536-116.712-29.12-22.758 13.224-50.796 22.241-80.451 26.114l-1.274 4.687h-56.889v-3.413c-71.079-7.361-132.666-42.885-174.251-95.057l-0.398 295.875h-56.889v-910.222h56.889v296.391c46.217-59.553 117.807-97.511 198.262-97.511 42.54 0 82.601 10.612 117.68 29.332l4.342-0.656h221.298c28.414 13.659 52.685 31.201 73.344 52.294l-97.237 0.044c-25.147-13.977-54.952-22.684-86.678-23.882zM480.142 252.302v17.636h-56.889v-18.773c-98.275 13.241-173.248 96.577-173.248 197.424 0 109.966 89.145 199.111 199.111 199.111s199.111-89.145 199.111-199.111c0-77.951-44.795-145.44-110.047-178.13l-41.54-0.521c3.413-3.982 7.964-6.827 11.947-10.24-7.867-2.817-17.422-5.379-27.235-7.208zM423.253 161.28h56.889v-52.338h-56.889v52.338zM423.253 814.364h56.889v-52.338h-56.889v52.338zM423.253 52.053h56.889v-59.164h-56.889v59.164zM853.333 544.711h62.578c-8.319 19.777-18.043 36.812-29.515 52.487l-76.299-0.718c17.075-14.583 31.458-31.684 42.728-50.836zM835.698 326.827h67.129c8.258 14.969 15.433 32.343 20.616 50.557l-56.456 1.781c-8.207-20.048-18.735-37.334-31.542-52.649z" />
<glyph unicode="&#xe926;" glyph-name="Settings_KPI-grouping" d="M56.889 817.778h56.889v28.444h28.444v56.889h-85.333v-85.333zM56.889 419.556h56.889v-113.778h-56.889v113.778zM56.889 248.889h56.889v-113.778h-56.889v113.778zM56.889 590.222h56.889v-113.778h-56.889v113.778zM56.889 760.889h56.889v-113.778h-56.889v113.778zM113.778 78.222h-56.889v-85.333h85.333v56.889h-28.444v28.444zM199.111 49.778h113.778v-56.889h-113.778v56.889zM369.778 49.778h113.778v-56.889h-113.778v56.889zM540.444 49.778h113.778v-56.889h-113.778v56.889zM711.111 49.778h113.778v-56.889h-113.778v56.889zM910.222 49.778h-28.444v-56.889h85.333v85.333h-56.889v-28.444zM910.222 760.889h56.889v-113.778h-56.889v113.778zM910.222 590.222h56.889v-113.778h-56.889v113.778zM910.222 248.889h56.889v-113.778h-56.889v113.778zM910.222 419.556h56.889v-113.778h-56.889v113.778zM881.778 903.111v-56.889h28.444v-28.444h56.889v85.333h-85.333zM540.444 903.111h113.778v-56.889h-113.778v56.889zM199.111 903.111h113.778v-56.889h-113.778v56.889zM369.778 903.111h113.778v-56.889h-113.778v56.889zM711.111 903.111h113.778v-56.889h-113.778v56.889zM568.889 732.444h227.556v-227.556h-227.556v227.556zM568.889 389.404h227.556v-227.556h-227.556v227.556zM227.556 732.444h227.556v-227.556h-227.556v227.556zM227.556 391.111h227.556v-227.556h-227.556v227.556z" />
<glyph unicode="&#xe927;" glyph-name="Settings_loop" d="M512 705.138c-80.579-0.391-152.267-38.115-198.706-96.749l-0.406 294.723h-56.889v-910.222h56.889v297.529c47.202-58.812 119.082-96.142 199.679-96.142 141.071 0 255.431 114.36 255.431 255.431s-114.36 255.431-255.431 255.431c-0.2 0-0.4 0-0.599-0.001zM512 250.027c-109.965 0.002-199.108 89.146-199.108 199.111s89.145 199.111 199.111 199.111 199.111-89.145 199.111-199.111c0-0.4-0.001-0.8-0.004-1.199-0.645-109.414-89.542-197.912-199.108-197.912-0.001 0-0.002 0-0.003 0z" />
<glyph unicode="&#xe928;" glyph-name="Settings_Management-settings" d="M877.227 354.133h-14.222zM568.889 885.476h-505.173v-504.604h505.173v504.604zM512 438.329h-391.396v390.258h391.396v-390.258zM628.622 78.222h-508.018v219.022h398.222l30.151 56.889h-485.262v-332.8h618.951l-11.947 28.444c-16.050 9.223-29.805 18.626-42.778 28.968zM666.738 382.009l23.324 56.889h-35.84v389.689h256v-390.258h-91.022l23.893-56.889h124.018v504.036h-369.778v-504.604h67.129zM754.347 321.707c-0.387 0.005-0.843 0.008-1.301 0.008-55.297 0-100.124-44.827-100.124-100.124s44.827-100.124 100.124-100.124c55.297 0 100.124 44.827 100.124 100.124 0 30.154-13.33 57.195-34.418 75.551-17.173 15.197-39.697 24.451-64.382 24.565zM754.347 151.040c-38.955 0.005-70.533 31.586-70.533 70.542 0 38.959 31.583 70.542 70.542 70.542s70.542-31.583 70.542-70.542c0-0.4-0.003-0.799-0.010-1.198-1.263-37.908-32.346-68.207-70.505-68.207-0.013 0-0.026 0-0.039 0zM923.307 196.551c1.313 7.951 2.063 17.115 2.063 26.453s-0.75 18.502-2.193 27.433l43.935 48.514-30.151 54.044-4.551 8.533-56.889-8.533h-11.947c-13.196 11.012-28.424 20.209-44.936 26.897l-1.144 0.41-21.049 56.889v6.827h-77.369v-7.396l-21.049-56.889c-17.874-7.044-33.297-16.25-46.935-27.536l0.286 0.23h-11.378l-56.889 8.533-4.551-8.533-30.151-56.889 41.529-48.924c-1.232-7.779-1.935-16.75-1.935-25.884s0.704-18.105 2.060-26.86l-43.36-50.224 35.271-62.578 66.56 10.24c14.713-12.005 31.613-22.145 49.868-29.665l16.692-41.446 8.533-22.187h67.129l5.689 23.324 15.36 40.96c19.582 8.042 36.478 18.179 51.573 30.445l69.031-10.534 34.702 62.009zM916.48 113.493h-6.827l-53.476 7.964-2.844-3.413c-14.54-13.44-32.013-23.942-51.331-30.427l-7.265-0.293v-6.827l-18.773-50.631h-36.409l-18.773 50.631v6.827h-6.258c-20.335 6.742-37.814 17.249-52.428 30.803l-5.029 4.468-60.302-9.102-15.929 28.444 39.253 46.649v6.827c-1.805 8.551-2.839 18.377-2.839 28.444s1.034 19.893 3 29.377l-0.162 5.894-34.702 40.96-5.12 5.689 15.929 28.444 60.302-9.102 5.12 4.551c12.514 11.399 27.236 20.638 43.414 26.976l8.923 3.744h6.258l7.964 21.618 11.378 34.702h32.427l13.653-35.84 7.964-21.618h6.258l7.964-3.413c17.126-6.709 31.843-15.943 44.493-27.414l5-4.444 60.302 9.102 15.929-28.444-23.324-27.307-12.516-14.222-4.551-6.827v-6.827c1.798-8.552 2.827-18.378 2.827-28.444s-1.029-19.893-2.989-29.379l0.161-5.892 17.067-17.067 22.756-26.738z" />
<glyph unicode="&#xe929;" glyph-name="Settings_Save-filter-settings" d="M826.596 776.818l-272.498-285.582v-58.027l56.889 0.569v33.564l356.124 366.364h-910.222l326.542-366.364v-443.164l56.889 73.956v393.102l-242.916 285.582h629.191zM719.076 321.707c-0.161 0.001-0.352 0.001-0.543 0.001-54.669 0-98.987-44.318-98.987-98.987s44.318-98.987 98.987-98.987c53.868 0 97.686 43.029 98.958 96.591 0.019 0.796 0.028 1.595 0.028 2.395 0 54.478-44.009 98.677-98.415 98.985zM719.076 151.040c-0.166-0.001-0.363-0.002-0.56-0.002-38.959 0-70.542 31.583-70.542 70.542s31.583 70.542 70.542 70.542c38.959 0 70.542-31.583 70.542-70.542 0-0.399-0.003-0.798-0.010-1.196-1.256-37.723-32.041-67.911-69.944-68.207zM896.569 362.098l-66.56-10.24c-14.546 12.492-31.514 22.691-50.029 29.759l-24.495 66.384h-72.818l-22.756-65.991c-19.686-7.46-36.654-17.659-51.428-30.342l-66.332 10.431-35.271-62.578 43.236-51.2c-1.232-7.779-1.935-16.75-1.935-25.884s0.704-18.105 2.060-26.86l-43.36-50.224 35.271-62.578 66.56 10.24c14.546-12.492 31.514-22.691 50.029-29.759l23.926-64.108h71.68l23.324 63.147c19.686 7.46 36.654 17.659 51.428 30.342l66.332-10.431 35.271 62.578-43.804 51.2c1.313 7.951 2.063 17.115 2.063 26.453s-0.75 18.502-2.193 27.433l43.935 48.514zM859.022 248.32c1.798-8.552 2.827-18.378 2.827-28.444s-1.029-19.893-2.989-29.379l0.161-5.892 39.253-46.649-15.929-28.444-60.302 9.102-5.12-4.551c-14.54-13.44-32.013-23.942-51.331-30.427l-7.265-0.293-21.618-56.889h-33.564l-21.618 56.889h-6.258c-20.335 6.742-37.814 17.249-52.428 30.803l-5.029 4.468-60.302-9.102-15.929 28.444 39.253 46.649v6.827c-1.805 8.551-2.839 18.377-2.839 28.444s1.034 19.893 3 29.377l-0.162 5.894-39.253 46.649 15.929 28.444 60.302-9.102 5.12 4.551c14.516 13.486 31.998 23.997 51.342 30.433l7.254 0.287 21.618 56.889h32.427l21.618-56.889h6.258c20.32-6.795 37.79-17.295 52.436-30.809l5.022-4.462 60.302 9.102 15.929-28.444-35.271-39.822-4.551-6.827z" />
<glyph unicode="&#xe92a;" glyph-name="Settings_Save-view-settings" d="M771.413 355.84c-54.669 0-98.987-44.318-98.987-98.987s44.318-98.987 98.987-98.987c54.669 0 98.987 44.318 98.987 98.987s-44.318 98.987-98.987 98.987zM771.413 185.173c-38.959 0-70.542 31.583-70.542 70.542s31.583 70.542 70.542 70.542c38.959 0 70.542-31.583 70.542-70.542-0.954-38.218-32.162-68.836-70.522-68.836-0.007 0-0.014 0-0.022 0zM942.649 256.853c0.348 4.088 0.547 8.848 0.547 13.653s-0.199 9.565-0.588 14.27l41.57 49.446-35.271 62.578-66.56-10.24c-14.546 12.492-31.514 22.691-50.029 29.759l-24.495 62.97h-71.68l-23.893-62.578c-19.686-7.46-36.654-17.659-51.428-30.342l-65.763 10.431-35.271-62.578 43.236-51.2c-1.232-7.779-1.935-16.75-1.935-25.884s0.704-18.105 2.060-26.86l-43.36-50.224 35.271-62.578 66.56 10.24c14.546-12.492 31.514-22.691 50.029-29.759l25.064-63.539h71.111l23.324 63.147c19.686 7.46 36.654 17.659 51.428 30.342l66.332-10.431 35.271 62.578-43.804 51.2c1.328 7.617 2.151 16.464 2.274 25.48zM950.044 176.071l-15.929-28.444-60.302 9.102-5.12-4.551c-14.54-13.44-32.013-23.942-51.331-30.427l-7.265-0.293-21.618-56.889h-32.996l-21.618 56.889h-6.258c-20.335 6.742-37.814 17.249-52.428 30.803l-5.029 4.468-60.302-9.102-15.929 28.444 39.822 44.373v6.827c-1.798 8.552-2.827 18.378-2.827 28.444s1.029 19.893 2.989 29.379l-0.161 5.892-39.253 46.649 15.929 28.444 60.302-9.102 5.12 4.551c14.419 12.998 31.706 23.125 50.771 29.303l7.256 0.28 21.618 56.889h32.427l21.618-56.889h6.258c20.32-6.795 37.79-17.295 52.436-30.809l5.022-4.462 60.302 9.102 15.929-28.444-35.271-39.822-3.982-5.689v-6.827c1.805-8.551 2.839-18.377 2.839-28.444s-1.034-19.893-3-29.377l0.162-5.894zM722.489 817.778v-277.618l56.889 22.187v312.32h-733.867v-853.333h516.551l-36.978 56.889h-422.684l-0.569 739.556h620.658z" />
<glyph unicode="&#xe92b;" glyph-name="more2" d="M415.289 532.764h170.667v-170.667h-170.667v170.667zM415.289 248.32h170.667v-170.667h-170.667v170.667zM415.289 818.347h170.667v-170.667h-170.667v170.667z" />
<glyph unicode="&#xe92c;" glyph-name="minimize_detailreport" d="M512 960c-281.6 0-512-230.4-512-512s230.4-512 512-512 512 230.4 512 512-230.4 512-512 512zM768 362.667v0 0h-512v128h512v-128z" />
<glyph unicode="&#xe92d;" glyph-name="open" d="M512 960c-281.6 0-512-230.4-512-512s230.4-512 512-512 512 230.4 512 512-230.4 512-512 512zM768 379.733v0h-213.333v-213.333h-85.333v213.333h-213.333v85.333h213.333v213.333h85.333v-213.333h213.333v-85.333z" />
<glyph unicode="&#xe92e;" d="M288 960v-387.2c-156.963-22.215-276.368-155.669-276.368-317.011 0-172.64 136.713-313.35 307.783-319.771l704.585-0.017v1024h-736zM64 256c0 141.385 114.615 256 256 256s256-114.615 256-256c0-141.385-114.615-256-256-256s-256 114.615-256 256zM960 0h-448c79.304 58.928 130.129 152.32 130.129 257.583 0 165.535-125.692 301.714-286.843 318.303l-1.366 320.114h608v-896z" />
<glyph unicode="&#xe92f;" d="M191.36 107.52h101.76l218.88 218.88-101.12 101.76-218.88-218.88v-101.12zM218.88 197.76l192 192 64-64-192-192h-64v64z" />
<glyph unicode="&#xe930;" d="M617.6 637.44h76.8v-239.36h-76.8v239.36z" />
<glyph unicode="&#xe931;" d="M617.6 334.72h76.8v-76.8h-76.8v76.8z" />
<glyph unicode="&#xe932;" glyph-name="edit" d="M771.84 960c-6.067-0.816-11.37-3.599-15.355-7.675l-682.885-682.885c-3.409-3.412-5.884-7.759-7.006-12.623l-64.034-288.817c-0.407-1.731-0.64-3.718-0.64-5.76 0-14.492 11.748-26.24 26.24-26.24 2.042 0 4.029 0.233 5.937 0.674l288.463 63.966c5.041 1.156 9.388 3.631 12.8 7.040l682.88 682.88c4.752 4.749 7.691 11.311 7.691 18.56s-2.939 13.811-7.691 18.56l-223.36 223.36c-4.841 5.615-11.962 9.147-19.909 9.147-1.103 0-2.191-0.068-3.258-0.2zM775.040 880.64l168.96-170.24-629.76-629.12-168.96 170.24zM118.4 198.4l135.040-145.92-177.28-40.32z" />
<glyph unicode="&#xe933;" glyph-name="hide" horiz-adv-x="1898" d="M1139.096 447.407c0-104.851-84.998-189.849-189.849-189.849s-189.849 84.998-189.849 189.849c0 104.851 84.998 189.849 189.849 189.849s189.849-84.998 189.849-189.849zM1870.016 516.227c-142.387 140.014-500.728 443.773-920.769 443.773s-777.196-303.759-920.769-443.773c-17.912-17.474-29.021-41.85-29.021-68.82s11.109-51.346 29.001-68.801c142.407-140.033 500.747-443.792 920.789-443.792s777.196 303.759 920.769 443.773c17.912 17.474 29.021 41.85 29.021 68.82s-11.109 51.346-29.001 68.801zM949.247 81.947c-201.838 0-365.46 163.622-365.46 365.46s163.622 365.46 365.46 365.46c201.838 0 365.46-163.622 365.46-365.46s-163.622-365.46-365.46-365.46z" />
<glyph unicode="&#xe934;" glyph-name="equation_managementreport" d="M512 960c-282.77 0-512-229.23-512-512s229.23-512 512-512c282.77 0 512 229.23 512 512s-229.23 512-512 512zM512 0c-247.424 0-448 200.576-448 448s200.576 448 448 448c247.424 0 448-200.576 448-448s-200.576-448-448-448zM685.44 492.8c-24.389 0-44.16-19.771-44.16-44.16v0c0-24.389 19.771-44.16 44.16-44.16s44.16 19.771 44.16 44.16c0 24.389-19.771 44.16-44.16 44.16zM518.4 492.8c-24.389 0-44.16-19.771-44.16-44.16v0c0-24.389 19.771-44.16 44.16-44.16s44.16 19.771 44.16 44.16c0 24.389-19.771 44.16-44.16 44.16zM350.72 492.8c-24.389 0-44.16-19.771-44.16-44.16v0c0-24.389 19.771-44.16 44.16-44.16s44.16 19.771 44.16 44.16c0 24.389-19.771 44.16-44.16 44.16zM908.8 476.8l-216.32 170.88v-64l177.92-137.6-177.92-136.96v-64l216.32 170.88c0.64 17.28 0 40.96 0 60.8zM332.16 647.68l-216.32-170.88c0-19.84 0-43.52 0-64l216.32-170.88v64l-177.92 136.96 177.92 137.6v64z" />
<glyph unicode="&#xe935;" glyph-name="dustbin" horiz-adv-x="709" d="M322.56 566.4h64v-472.32h-64v472.32zM480 566.4h64v-472.32h-64v472.32zM165.12 566.4h64v-472.32h-64v472.32zM0-64h709.12v787.2h-709.12v-787.84zM64 659.84h581.12v-660.48h-581.12v659.84zM472.32 881.28v78.72h-236.16v-78.72h-236.16v-64h709.12v64h-236.8z" />
<glyph unicode="&#xe936;" glyph-name="rollup_KPPI" horiz-adv-x="768" d="M352.42 202.713h63.96v401.029h145.829l-178.448 164.377-177.809-164.377h146.468v-401.029zM0 63.92h767.52v-127.92h-767.52v127.92zM0 960h767.52v-63.96h-767.52v63.96z" />
<glyph unicode="&#xe937;" glyph-name="move-filters" horiz-adv-x="1092" d="M1092.48 229.76l-260.48 203.52v-168.32h-256l-128 0.64v-73.6h384v-165.76l260.48 203.52zM704 0h-640v896h320v-320h320v-256h64v336l-304 304h-464v-1024h768v192h-64v-128zM448 880.64l240.64-240.64h-240.64v240.64z" />
<glyph unicode="&#xe938;" glyph-name="more_data_detailreport" d="M832 452.48c0-44.183-35.817-80-80-80s-80 35.817-80 80c0 44.183 35.817 80 80 80s80-35.817 80-80zM592 452.48c0-44.183-35.817-80-80-80s-80 35.817-80 80c0 44.183 35.817 80 80 80s80-35.817 80-80zM352 452.48c0-44.183-35.817-80-80-80s-80 35.817-80 80c0 44.183 35.817 80 80 80s80-35.817 80-80zM511.36 4.48c-247.424 0-448 200.576-448 448s200.576 448 448 448c247.424 0 448-200.576 448-448s-200.576-448-448-448zM511.36 964.48c-282.77 0-512-229.23-512-512s229.23-512 512-512c282.77 0 512 229.23 512 512s-229.23 512-512 512z" />
<glyph unicode="&#xe939;" glyph-name="maximize_detailreport" d="M337.28 345.6l-234.88-234.88v183.68h-102.4v-358.4h358.4v102.4h-183.68l235.52 234.88-72.96 72.32zM665.6 960v-102.4h183.68l-234.88-234.88 72.32-72.96 234.88 235.52v-183.68h102.4v358.4h-358.4zM358.4 857.6v102.4h-358.4v-358.4h102.4v183.68l234.88-235.52 72.96 72.96-235.52 234.88h183.68zM921.6 110.72l-234.88 234.88-72.32-72.32 234.88-234.88h-183.68v-102.4h358.4v358.4h-102.4v-183.68z" />
<glyph unicode="&#xe93a;" glyph-name="Disposition-State-" horiz-adv-x="853" d="M739.556 814.933v26.169l-154.169 118.898h-585.387v-910.222h113.778v-113.778h739.556v791.324zM56.889 106.667v796.444h512l82.489-56.889h-537.6v-739.556zM796.444-7.111h-625.778v796.444h512l113.778-78.507zM436.338 647.111h113.778v-341.333h-113.778v341.333zM436.338 248.889h113.778v-113.778h-113.778v113.778z" />
<glyph unicode="&#xe93b;" glyph-name="Disposition-Rule" horiz-adv-x="832" d="M352 780.8h128v-352h-128v352zM352 288h128v-128h-128v128zM659.2 960h-659.2v-1024h832v876.8l-172.8 147.2zM768 0h-704v896h576l128-102.4v-793.6z" />
<glyph unicode="&#xe93c;" glyph-name="resetfilter" horiz-adv-x="934" d="M466.869 869.739c-0.265 0.001-0.578 0.001-0.892 0.001-96.223 0-185.601-29.305-259.697-79.477l27.154 162.89-46.687 6.847-36.727-245.262-3.735-22.41 267.672-43.574 6.847 44.819-199.82 32.992c67.493 52.48 153.441 84.135 246.784 84.135 223.122 0 403.998-180.876 403.998-403.998s-180.876-403.998-403.998-403.998c-223.122 0-403.998 180.876-403.998 403.998 0 57.557 12.036 112.303 33.729 161.858l-66.376 1.136c-19.513-49.506-30.824-106.846-30.824-166.828 0-257.845 209.025-466.869 466.869-466.869s466.869 209.025 466.869 466.869c0 257.845-209.025 466.869-466.869 466.869-0.106 0-0.211 0-0.317 0z" />
<glyph unicode="&#xe93d;" glyph-name="Save" d="M0 960v-813.44l210.56-210.56h813.44v1024h-1024zM352 896h320v-124.16h-320v124.16zM960 0h-722.56l-173.44 172.8v723.2h224v-188.16h448v188.16h224v-896z" />
<glyph unicode="&#xe93e;" glyph-name="Aggregate-KPI" horiz-adv-x="768" d="M415.74 768.12h-63.96v-401.029h-145.829l178.448-164.377 177.809 164.377h-146.468v401.029zM0 63.92h767.52v-127.92h-767.52v127.92zM0 960h767.52v-63.96h-767.52v63.96z" />
<glyph unicode="&#xe93f;" glyph-name="close" d="M0 960v-1024h1024v1024zM960 16h-896v864h896zM671.36 234.88l45.44 45.44-158.080 158.72 158.080 158.080-45.44 45.44-158.080-158.72-158.72 158.72-44.8-45.44 158.080-158.080-158.080-158.72 44.8-45.44 158.72 158.72 158.080-158.72z" />
<glyph unicode="&#xe940;" glyph-name="back_arrow" horiz-adv-x="819" d="M0 960v-1024h819.2v1024h-819.2zM486.4 176.64l-256 271.36 250.88 271.36h102.4l-250.88-271.36 250.88-271.36h-97.28z" />
<glyph unicode="&#xe941;" glyph-name="front_arrow" horiz-adv-x="819" d="M819.2-64v1024h-819.2v-1024h819.2zM332.8 719.36l250.88-271.36-250.88-271.36h-102.4l256 271.36-256 271.36h102.4z" />
<glyph unicode="&#xe942;" glyph-name="down_arrow" horiz-adv-x="819" d="M819.2-64v1024h-819.2v-1024h819.2zM680.96 524.8l-271.36-256-271.36 256v102.4l271.36-256 271.36 250.88v-97.28z" />
<glyph unicode="&#xe943;" glyph-name="up_arrow" horiz-adv-x="819" d="M0 960v-1024h819.2v1024h-819.2zM138.24 371.2l271.36 256 271.36-250.88v-102.4l-271.36 250.88-271.36-250.88v97.28z" />
<glyph unicode="&#xe944;" glyph-name="cell" horiz-adv-x="1105" d="M867.955 565.933l236.584 117.933-554.427 276.135-549.393-276.135 235.146-117.933-235.146-117.933 235.146-117.933-235.146-117.933 552.27-276.135 552.27 276.135-236.584 117.933 236.584 117.933zM160.36 683.865l389.753 195.596 393.348-195.596-391.191-195.596zM943.461 212.135l-391.191-195.596-391.91 195.596 155.326 77.663 236.584-117.933 235.146 117.933zM552.27 252.404l-391.91 195.596 155.326 77.663 236.584-117.933 235.865 117.933 156.045-77.663z" />
<glyph unicode="&#xe945;" glyph-name="info" d="M0 960v-1024h1024v1024zM552.107 160.427h-85.333v85.333h85.333zM687.787 541.013c-20.347-32.978-44.699-61.131-72.866-84.905-18.025-15.069-33.667-30.711-47.832-47.632-8.010-10.781-13.876-22.742-17.37-35.676-3.997-18.729-6.187-39.389-6.187-60.56 0-1.772 0.015-3.541 0.046-5.305l-72.537 0.266c0 10.24 0 17.92 0 22.187-0.021 1.094-0.032 2.385-0.032 3.678 0 25.94 4.705 50.781 13.308 73.717 6.183 18.822 15.767 36.397 27.957 51.817 16.534 18.209 34.087 35.222 52.691 51.036 20.116 16.379 36.743 34.361 50.582 54.415 8.068 13.307 12.51 28.339 12.51 44.409 0 0.289-0.001 0.577-0.004 0.866 0.043 1.073 0.068 2.384 0.068 3.701 0 28.895-11.772 55.040-30.781 73.902-20.941 20.623-49.693 33.353-81.419 33.353-1.379 0-2.752-0.024-4.12-0.072-0.919 0.045-2.233 0.068-3.551 0.068-29.551 0-56.444-11.38-76.537-29.996-23.132-24.763-38.441-57.236-41.696-93.188l-76.845 8.775c3.733 51.613 26.556 97.274 61.362 130.486 34.083 28.41 78.231 45.611 126.397 45.611 3.894 0 7.761-0.112 11.599-0.334 2.464 0.182 5.97 0.271 9.497 0.271 50.698 0 97.076-18.499 132.752-49.115 31.497-27.862 51.506-68.626 51.78-114.070 0.054-1.543 0.084-3.299 0.084-5.062 0-26.672-6.993-51.711-19.245-73.384z" />
<glyph unicode="&#xe946;" glyph-name="slave" d="M682.667 686.933v273.067h-682.667v-682.667h273.067v-341.333h750.933v750.933zM273.067 345.6h-204.8v546.133h546.133v-204.8h-341.333zM626.005 79.36c-0.889-0.012-1.94-0.019-2.991-0.019-41.977 0-81.411 10.887-115.632 29.991l16.224 49.217c30.401-18.562 67.113-29.686 106.398-30.037 60.855-0.001 96.354 32.085 96.354 78.506s-24.576 68.267-86.699 91.477c-75.093 26.624-121.515 68.267-121.515 130.389 5.289 68.776 62.396 122.578 132.070 122.578 5.906 0 11.721-0.387 17.422-1.136 1.45 0.149 3.942 0.193 6.444 0.193 34.519 0 67.082-8.372 95.769-23.197l-18.916-45.19c-25.074 13.755-54.941 21.847-86.698 21.847-0.24 0-0.48 0-0.72-0.001-62.768 0-86.662-37.547-86.662-68.267 0-43.008 27.989-64.171 91.477-88.747 77.824-30.037 117.419-68.267 117.419-136.533s-51.2-131.072-159.744-131.072z" />
<glyph unicode="&#xe947;" glyph-name="master" d="M750.933 618.667v341.333h-750.933v-750.933h341.333v-273.067h682.667v682.667zM349.525 345.6l-144.725 419.157v-419.157h-59.392v492.203h97.621l115.371-346.112q15.701-48.469 23.211-72.363 8.192 26.624 25.941 78.507l116.736 341.333h90.112v-493.568h-64.853v409.6l-139.947-409.6zM955.733 4.267h-546.133v204.8h341.333v341.333h204.8z" />
<glyph unicode="&#xe948;" glyph-name="Settings_expand-all" d="M546.133 186.311l364.089 364.089-39.822 39.822-364.089-364.089-358.4 364.089-45.511-39.822 403.911-403.911zM921.6 800.711l-45.511 39.822-358.4-358.4-364.089 358.4-39.822-39.822 364.089-358.4 39.822-39.822 39.822 39.822z" />
<glyph unicode="&#xe94b;" glyph-name="collapse_etail-report" d="M70.4-64l236.8 236.8v-185.6h102.4v358.4h-358.4v-102.4h185.6l-236.8-236.8zM972.8 550.4v102.4h-185.6l236.8 236.8-70.4 70.4-236.8-236.8v185.6h-102.4v-358.4zM51.2 652.8v-102.4h358.4v358.4h-102.4v-185.6l-236.8 236.8-70.4-70.4 236.8-236.8zM716.8 172.8l236.8-236.8 70.4 70.4-236.8 236.8h185.6v102.4h-358.4v-358.4h102.4z" />
<glyph unicode="&#xe94c;" glyph-name="close_live-trend" d="M672 236.8l44.8 44.8-160 160 160 153.6-44.8 44.8-160-153.6-160 153.6-44.8-44.8 160-153.6-160-160 44.8-44.8 160 153.6z" />
</font>
</defs>
</svg>
